<svg xmlns="http://www.w3.org/2000/svg" viewBox="0 0 32 32">
    <path d="M28.747 13.418c.12-.751.195-1.575.214-2.499-.007-3.96-1.928-5.362-2.298-6.02.544-3-.09-4.366-.385-4.833-1.089-.382-3.787.984-5.261 1.945-2.404-.694-7.484-.627-9.39.18C8.114-.293 6.255.085 6.255.085s-1.202 2.128-.318 5.24C4.779 6.78 3.917 7.81 3.917 10.537c0 .653.041 1.27.111 1.865.996 5.17 5.146 7.4 9.222 7.784-.614.46-1.35 1.33-1.452 2.34-.77.491-2.32.654-3.526.28-1.69-.527-2.336-3.829-4.866-3.358-.547.101-.438.458.036.761.77.494 1.496 1.107 2.056 2.42.43 1.008 1.333 2.807 4.19 2.807 1.135 0 1.93-.133 1.93-.133s.02 2.568.02 3.57c0 1.152-1.575 1.476-1.575 2.029 0 .22.522.24.94.24.829 0 2.552-.68 2.552-1.878 0-.952.016-4.151.016-4.711 0-1.224.664-1.614.664-1.614s.082 6.534-.16 7.41c-.283 1.03-.795.884-.795 1.342 0 .684 2.072.167 2.759-1.33.531-1.17.293-7.578.293-7.578l.555-.011s.006 2.934-.013 4.275c-.02 1.389-.165 3.144.67 3.973.549.544 2.229 1.5 2.229.627 0-.507-1.177-.925-1.177-2.297v-6.32c.715 0 .863 2.077.863 2.077l.258 3.86s-.172 1.408 1.54 1.996c.605.21 1.898.266 1.96-.085.06-.352-1.558-.872-1.573-1.962-.009-.664.03-1.052.03-3.94 0-2.886-.393-3.954-1.762-4.805 3.97-.402 8.092-2.152 8.835-6.753z" />
</svg>
