<svg xmlns="http://www.w3.org/2000/svg" viewBox="0 0 32 32">
  <path d="M16 8.408L4.587 17.816a.27.27 0 01-.01.06.272.272 0 00-.01.059v9.527c0 .344.126.642.377.893.252.251.55.378.894.378h7.621V21.11h5.082v7.622h7.621c.344 0 .642-.126.893-.378.252-.25.378-.549.378-.893v-9.527a.28.28 0 00-.02-.119L16 8.408z"/>
  <path d="M31.779 15.672l-4.346-3.612V3.962a.618.618 0 00-.18-.457.616.616 0 00-.456-.178h-3.81a.619.619 0 00-.457.178.619.619 0 00-.179.457v3.87l-4.843-4.049c-.423-.344-.925-.516-1.508-.516-.582 0-1.085.172-1.508.516L.22 15.673a.577.577 0 00-.218.426.643.643 0 00.139.467l1.23 1.469a.677.677 0 00.417.218.737.737 0 00.477-.139L16 6.661l13.735 11.453a.612.612 0 00.417.139h.06c.171-.027.31-.1.416-.219l1.23-1.468a.642.642 0 00.14-.467.579.579 0 00-.219-.427z"/>
</svg>
