<svg fill="none" xmlns="http://www.w3.org/2000/svg" viewBox="0 0 32 32">
    <path d="M31.715 23.156c-.086-.144-.618-1.3-3.178-3.676-2.68-2.488-2.32-2.084.908-6.387 1.966-2.62 2.752-4.22 2.506-4.904-.234-.652-1.68-.48-1.68-.48l-4.809.028s-.356-.048-.622.11c-.258.156-.424.516-.424.516s-.762 2.028-1.778 3.752c-2.142 3.639-3 3.83-3.35 3.605-.814-.526-.61-2.117-.61-3.245 0-3.526.534-4.996-1.042-5.376-.524-.126-.908-.21-2.246-.224-1.717-.018-3.17.006-3.993.408-.548.268-.97.866-.712.9.318.042 1.038.194 1.42.714.494.67.476 2.178.476 2.178s.284 4.15-.662 4.667c-.65.354-1.54-.368-3.45-3.67-.978-1.69-1.718-3.56-1.718-3.56s-.142-.349-.396-.535c-.308-.226-.74-.298-.74-.298l-4.572.028s-.687.02-.939.318c-.224.266-.018.814-.018.814s3.58 8.375 7.633 12.597c3.718 3.87 7.939 3.616 7.939 3.616h1.912s.578-.064.872-.382c.272-.292.262-.84.262-.84s-.038-2.566 1.154-2.944c1.174-.372 2.682 2.48 4.28 3.578 1.208.83 2.126.648 2.126.648l4.275-.06s2.236-.138 1.176-1.896z" />
</svg>
