<svg fill="none" xmlns="http://www.w3.org/2000/svg" viewBox="0 0 138 112">
  <path d="M16.5 61.5C14.5 71 1 70.724 1 80c0 22 37.464 31 68.5 31C97 111 137 98.918 137 69c0-19.5-17.807-26.04-27-40-5.875-8.922-4-20.5-23.5-26S14 7 9.5 29s9 23 7 32.5z" stroke="#64B5F6" stroke-width="2"/>
  <path opacity=".18" d="M16.5 61.5C14.5 71 1 70.724 1 80c0 22 37.464 31 68.5 31C97 111 137 98.918 137 69c0-19.5-17.807-26.04-27-40-5.875-8.922-4-20.5-23.5-26S14 7 9.5 29s9 23 7 32.5z" fill="#64B5F6"/>
  <path d="M75.446 89.643l-.21.03c-.155.12.276.153.21-.03z" fill="url(#paint0_linear)"/>
  <path d="M28.534 65.398c1.574.625 3.23 1.23 4.251 1.947L56.98 84.166a58.17 58.17 0 005.782 3.651c1.63.873 2.559 2.556 4.535 2.98.978.167 1.98.15 2.95-.051a27.81 27.81 0 004.676-1.176c.188-.062.45-.102.535.077 14.09-1.906 27.564-6.97 41.532-9.607a.756.756 0 00.144-1.46 19.115 19.115 0 00-3.607-.877 304.119 304.119 0 00-6.685-1.168c-4.505-.77-9.052-1.27-13.618-1.497-7.581-.303-15.23.486-22.726-.68-7.124-1.095-13.843-3.924-20.473-6.74-1.596-.679-3.226-1.383-4.48-2.555-.98-.932-1.77-2.17-3.024-2.783s-2.869-.526-4.277-.46a64.18 64.18 0 00-8.26 1.096 37.06 37.06 0 00-1.45 2.482z" fill="url(#paint1_linear)"/>
  <path d="M116.347 75.315l-31.646-13.63a3.82 3.82 0 00-2.212-.365l-39.154 3.312c-.737.106-.616 3.286 0 3.804L66.452 87.92a5.828 5.828 0 002.424 1.263 5.865 5.865 0 002.738.022l44.46-10.698c.564-.154.808-2.921.273-3.192z" fill="#64B5F6"/>
  <path d="M116.347 75.315l-31.646-13.63a3.82 3.82 0 00-2.212-.365l-39.154 3.312c-.737.106-.616 3.286 0 3.804L66.452 87.92a5.828 5.828 0 002.424 1.263 5.865 5.865 0 002.738.022l44.46-10.698c.564-.154.808-2.921.273-3.192z" fill="url(#paint2_linear)"/>
  <path d="M43.335 66.158L66.448 85.64a5.813 5.813 0 002.424 1.263 5.85 5.85 0 002.739.019l44.441-10.695a.732.732 0 00.391-.956.736.736 0 00-.28-.33l-12.187-6.809-3.197-1.778-9.732-5.437a3.82 3.82 0 00-2.212-.365l-45.098 3.889c-.752.106-1 1.205-.402 1.716z" fill="#64B5F6"/>
  <path d="M88.853 61.63l-41.24 6.043 12.696 10.202 42.321-8.478-13.776-7.767z" fill="url(#paint3_linear)"/>
  <path d="M93.168 71.93l-16.996 3.4 8.787 7.098 17.671-3.925-9.462-6.572z" fill="url(#paint4_linear)"/>
  <path d="M101.664 79.733a2.72 2.72 0 01-.721.898 2.752 2.752 0 01-1.03.523c-1.247.296-8.526 2.14-8.526 2.14s-1.184.142-1.844-.643l12.121-2.918z" fill="url(#paint5_linear)"/>
  <path d="M90.144 60.553l-46.54 6.573a1.364 1.364 0 01-.968-.235 1.34 1.34 0 01-.543-.828l-6.638-33.198a2.535 2.535 0 01.372-1.92 2.582 2.582 0 011.948-1.143l45.96-4.017a2.599 2.599 0 011.88.569c.526.427.86 1.043.93 1.714l3.6 32.485z" fill="#64B5F6"/>
  <path d="M90.144 60.553l-46.418 6.54a1.487 1.487 0 01-1.065-.254 1.46 1.46 0 01-.594-.911l-6.615-33.063a2.535 2.535 0 01.37-1.92 2.582 2.582 0 011.949-1.143l45.964-4.017a2.599 2.599 0 011.88.569c.526.427.86 1.043.93 1.714l3.6 32.485z" fill="url(#paint6_linear)"/>
  <path d="M44.441 65.201l-6.608-33.497 46.994-3.235 3.728 31.712L44.44 65.2z" fill="#fff"/>
  <path d="M110.008 51.812c0 3.238-1.299 6.344-3.611 8.634a12.394 12.394 0 01-8.72 3.576c-3.27 0-6.406-1.287-8.719-3.576a12.15 12.15 0 01-3.611-8.634c-.007-.31.006-.622.036-.931a12.167 12.167 0 014.093-8.174 12.405 12.405 0 018.672-3.084 12.386 12.386 0 018.409 3.73 12.146 12.146 0 013.451 8.459z" fill="#64B5F6"/>
  <path opacity=".14" d="M92.493 57.358c-.406 1.764.092 3.652-.273 5.404a12.307 12.307 0 01-6.136-6.777 7.38 7.38 0 01.048-1.825 4.823 4.823 0 00.018-1.95 4.46 4.46 0 00-.767-1.333 12.102 12.102 0 011.565-5.08 12.231 12.231 0 013.598-3.938.7.7 0 010 .248l-.527 2.326a7.009 7.009 0 010 2.077 2.391 2.391 0 01-1.143 1.669c-.23.092-.451.2-.664.325a2.111 2.111 0 00-.502.595 4.88 4.88 0 00-.737 1.556 1.726 1.726 0 00.39 1.61l3.437-.661c.37-.07.797-.117 1.044.153s.11.829.177 1.26c.081.551.575.946.804 1.46.38.902-.103 1.917-.332 2.881zM110.008 51.812a12.074 12.074 0 01-1.233 5.332 12.208 12.208 0 01-3.464 4.26 1.559 1.559 0 01-.428-.424 1.242 1.242 0 01.339-1.727c-.206.106-1.021-.157-1.265-.197l-1.268-.193c-.609-.092-1.671-.055-2.025-.661a1.454 1.454 0 00-.143-.238.767.767 0 00-.262-.178c-.369-.187-.83-.395-.922-.807-.063-.3.088-.643-.067-.913-.051-.08-.125-.146-.173-.23a.775.775 0 01.085-.767c.535-.928 1.645-1.373 2.707-1.552 1.062-.179 2.16-.15 3.197-.449a13.913 13.913 0 011.95-.591c.369-.052.834-.088.97-.435.078-.194 0-.424.081-.62.03-.085.085-.161.118-.245a.5.5 0 00-.328-.632.446.446 0 00-.096-.022c.085-.23.155-.522-.026-.686a.49.49 0 00-.449-.07c-.443.113-.764.482-1.136.73-1.232.866-2.917.56-3.946-.46a1.095 1.095 0 01-.343-.55.886.886 0 01.524-.877 2.601 2.601 0 011.066-.208l-.406-2.648c-2.05.544-2.884-1.387-3.175-2.994-.291-1.606.859-2.19 2.345-2.289a12.31 12.31 0 015.644 4.49 12.123 12.123 0 012.129 6.851z" fill="#020202"/>
  <path d="M50.965 52.736c.368 3.286.39 6.612.984 9.858.137.73.369 1.563 1.025 1.932.525.226 1.11.277 1.667.146a34.795 34.795 0 0010.115-2.987 65.618 65.618 0 00-4.09-12.692c-.468-1.059-.98-2.132-1.814-2.943-1.265-1.227-3.016-1.614-4.698-1.942-.874-.172-1.762-.289-2.629-.508-.535-.135-2.054-1.019-2.496-.934-1.475.273 0 2.58.368 3.476a23.9 23.9 0 011.568 6.594z" fill="url(#paint7_linear)"/>
  <path d="M81.88 41.636l-35.145 3.297-.896-4.068 35.149-3.3.892 4.07z" fill="#64B5F6"/>
  <path d="M81.88 41.636l-35.145 3.297-.896-4.068 35.149-3.3.892 4.07z" fill="url(#paint8_linear)"/>
  <path d="M78.09 39.252c2.714-.289 5.343 1.423 6.796 3.71 1.453 2.285 1.844 3.391 2.028 6.086.059.876.133 1.847.785 2.443 1.088.99 2.788.219 4.212-.168 3.373-.92 7.293 1.037 8.554 4.272 1.232 3.158-.53 7.846 2.272 9.789 2.496 1.723 9.219-2.436 11.324-6.178 0 0 .612 8.219-5.94 12.327C98.397 77.63 80.17 80 78.252 79.796c-3.19-.347-6.67-1.443-8.197-4.236-1.527-2.793-.539-6.306-.539-9.53 0-1.855-.844-4.177-2.717-4.217-1.402-.033-2.416 1.289-3.068 2.516-.653 1.227-1.335 2.64-2.666 3.078-1.188.39-2.537-.19-3.352-1.129-.815-.938-1.188-2.19-1.438-3.392-.867-4.213-.472-8.591-1.17-12.838-.265-1.614-.737-3.267-1.843-4.476-1.106-1.209-3.706-2.998-5.69-2.921l30.518-3.4z" fill="#64B5F6"/>
  <path d="M78.09 39.252c2.714-.289 5.343 1.423 6.796 3.71 1.453 2.285 1.843 3.391 2.028 6.086.059.876.132 1.847.785 2.443 1.088.99 2.788.219 4.211-.168 3.374-.92 7.294 1.037 8.555 4.272 1.025 2.629.413 5.579 1.405 8.212.575 1.533 1.501 1.716 3.112 1.602a9.02 9.02 0 004.359-1.614c1.928-1.318 3.411-3.169 4.864-4.99-.343 2.245-.284 4.578-1.055 6.714-1.272 3.534-4.572 5.93-7.865 7.788a60.852 60.852 0 01-17.992 6.66c-2.95.592-6.04.135-9.026-.186-3.19-.365-6.671-1.46-8.198-4.236-1.526-2.775-.534-6.305-.523-9.53 0-1.854-.845-4.177-2.718-4.217-1.401-.033-2.415 1.29-3.068 2.516-.653 1.227-1.335 2.64-2.666 3.078-1.187.39-2.537-.19-3.352-1.128-.815-.939-1.187-2.191-1.438-3.392-.867-4.214-.472-8.592-1.169-12.838-.265-1.614-.737-3.286-1.844-4.477-1.106-1.19-3.706-2.998-5.69-2.92L78.09 39.25z" fill="url(#paint9_linear)"/>
  <path d="M89.547 51.94l-22.918 8.58s-1.265.303-2.869 3.809c-1.604 3.505-7.323 4.746-7.614-6.441-.292-11.188-.89-10.48-2.324-12.802l33.025 3.235s-.217 4.44 2.7 3.619z" fill="url(#paint10_linear)"/>
  <path d="M61.046 44.487l17.316-1.829M63.026 49.979l17.317-1.83M63.86 53.641l17.32-1.829M75.877 45.886l3.363-.354M69.147 46.598l4.558-.482M61.92 47.361l4.07-.43M76.87 60.944l16.954-6.233M78.245 66.403L95.2 60.17M78.69 70.163l16.96-6.232M91.1 58.815l3.288-1.208M84.51 61.236l4.461-1.64M77.433 63.84l3.986-1.469" stroke="#473F47" stroke-linecap="round" stroke-linejoin="round"/>
  <path opacity=".45" d="M112.468 61.283s-15.856 14.014-26.55 12.52c0 0-8.787 9.826-12.231 4.076-3.444-5.751 2.467-9.454 2.467-9.454l25.698-4.618s1.703 5.677 10.616-2.524z" fill="url(#paint11_linear)"/>
  <defs>
    <linearGradient id="paint0_linear" x1="-96.094" y1="14.933" x2="-96.414" y2="15.402" gradientUnits="userSpaceOnUse">
      <stop offset=".01"/>
      <stop offset=".08" stop-opacity=".69"/>
      <stop offset=".21" stop-opacity=".32"/>
      <stop offset="1" stop-opacity="0"/>
    </linearGradient>
    <linearGradient id="paint1_linear" x1="87300.5" y1="-9470.52" x2="72727.1" y2="23858.9" gradientUnits="userSpaceOnUse">
      <stop offset=".01"/>
      <stop offset=".08" stop-opacity=".69"/>
      <stop offset=".21" stop-opacity=".32"/>
      <stop offset="1" stop-opacity="0"/>
    </linearGradient>
    <linearGradient id="paint2_linear" x1="56049.3" y1="-5136.52" x2="55264.8" y2="1416.26" gradientUnits="userSpaceOnUse">
      <stop offset=".01"/>
      <stop offset=".08" stop-opacity=".69"/>
      <stop offset=".21" stop-opacity=".32"/>
      <stop offset="1" stop-opacity="0"/>
    </linearGradient>
    <linearGradient id="paint3_linear" x1="39599" y1="-3608" x2="39801.9" y2="1037.13" gradientUnits="userSpaceOnUse">
      <stop offset=".01"/>
      <stop offset=".08" stop-opacity=".69"/>
      <stop offset=".21" stop-opacity=".32"/>
      <stop offset="1" stop-opacity="0"/>
    </linearGradient>
    <linearGradient id="paint4_linear" x1="19976.2" y1="-1908.86" x2="20111.7" y2="400.59" gradientUnits="userSpaceOnUse">
      <stop offset=".01"/>
      <stop offset=".08" stop-opacity=".69"/>
      <stop offset=".21" stop-opacity=".32"/>
      <stop offset="1" stop-opacity="0"/>
    </linearGradient>
    <linearGradient id="paint5_linear" x1="9249.94" y1="-400.917" x2="9270.25" y2="-223.528" gradientUnits="userSpaceOnUse">
      <stop offset=".01"/>
      <stop offset=".08" stop-opacity=".69"/>
      <stop offset=".21" stop-opacity=".32"/>
      <stop offset="1" stop-opacity="0"/>
    </linearGradient>
    <linearGradient id="paint6_linear" x1="38755.2" y1="-12119.2" x2="36469" y2="14326.5" gradientUnits="userSpaceOnUse">
      <stop offset=".01"/>
      <stop offset=".08" stop-opacity=".69"/>
      <stop offset=".21" stop-opacity=".32"/>
      <stop offset="1" stop-opacity="0"/>
    </linearGradient>
    <linearGradient id="paint7_linear" x1="3726.83" y1="5972.48" x2="837.872" y2="2287.92" gradientUnits="userSpaceOnUse">
      <stop offset=".01"/>
      <stop offset=".08" stop-opacity=".69"/>
      <stop offset=".21" stop-opacity=".32"/>
      <stop offset="1" stop-opacity="0"/>
    </linearGradient>
    <linearGradient id="paint8_linear" x1="6878.89" y1="-1787.54" x2="6939.12" y2="-824.154" gradientUnits="userSpaceOnUse">
      <stop offset=".01"/>
      <stop offset=".08" stop-opacity=".69"/>
      <stop offset=".21" stop-opacity=".32"/>
      <stop offset="1" stop-opacity="0"/>
    </linearGradient>
    <linearGradient id="paint9_linear" x1="64.944" y1="41.581" x2="125.096" y2="102.716" gradientUnits="userSpaceOnUse">
      <stop stop-color="#fff" stop-opacity="0"/>
      <stop offset=".54" stop-color="#fff"/>
    </linearGradient>
    <linearGradient id="paint10_linear" x1="73.185" y1="78.802" x2="71.454" y2="43.168" gradientUnits="userSpaceOnUse">
      <stop offset=".01"/>
      <stop offset=".13" stop-opacity=".69"/>
      <stop offset=".25" stop-opacity=".32"/>
      <stop offset="1" stop-opacity="0"/>
    </linearGradient>
    <linearGradient id="paint11_linear" x1="11700.7" y1="2133.2" x2="11548.2" y2="2943.86" gradientUnits="userSpaceOnUse">
      <stop offset=".01"/>
      <stop offset=".13" stop-opacity=".69"/>
      <stop offset=".25" stop-opacity=".32"/>
      <stop offset="1" stop-opacity="0"/>
    </linearGradient>
  </defs>
</svg>
