<svg fill="none" xmlns="http://www.w3.org/2000/svg" viewBox="0 0 131 112">
  <path opacity=".18" d="M12.5 42.5c-8 8-17.815 33-5.5 50.5 13.37 19 117 28 121-1.5C129.822 70 115 56 112.5 46s1-31-10-38.5-26.5-7.5-40-3-10.5 17.526-17 23-25 7-33 15z" fill="#64B5F6"/>
  <path d="M12.5 42.5c-8 8-17.815 33-5.5 50.5 13.37 19 117 28 121-1.5C129.822 70 115 56 112.5 46s1-31-10-38.5-26.5-7.5-40-3-10.5 17.526-17 23-25 7-33 15z" stroke="#64B5F6" stroke-width="2"/>
  <path opacity=".18" d="M43.745 100.313c-1.317.573-2.706 1.884-2.179 3.227 5.78 2.113 12.08 2.113 18.23 2.085 14.907-.068 29.814-.132 44.7-.268 1.241 0 2.538-.037 3.628-.634 1.089-.597 1.872-1.96 1.397-3.111-.447-1.075-1.717-1.5-2.846-1.772a71.343 71.343 0 00-11.346-1.796c-3.105-.241-6.613-.453-8.629-2.839-.762-.902-1.217-2.037-1.995-2.919-4.658-5.272-15.613-2.923-19.588 1.568-6.054 6.856-13.829 3.167-21.372 6.459z" fill="#64B5F6"/>
  <path d="M58.316 59.346c-.886 2.546-1.652 5.18-1.668 7.878-.016 2.698.798 5.493 2.694 7.401 2.774 2.807 7.092 3.115 11.015 3.272l5.188.208c2.04.08 4.099.16 6.099-.248 1.999-.41 3.954-1.376 5.188-3.02a9.759 9.759 0 001.556-3.884c1.405-6.852-.874-14.153-5.156-19.67a18.396 18.396 0 00-4.494-4.29c-2.882-1.84-11.458-4.599-14.276-1.515-1.28 1.399-2.091 4.233-2.901 5.95a80.64 80.64 0 00-3.245 7.918z" fill="#fff"/>
  <path d="M60.978 57.886c-.718 2.061-1.337 4.19-1.349 6.375-.012 2.185.647 4.443 2.18 5.986 2.242 2.257 5.738 2.518 8.907 2.646l4.203.169c1.645.13 3.3.062 4.929-.205 1.616-.333 3.192-1.11 4.182-2.442a7.805 7.805 0 001.261-3.139c1.138-5.545-.706-11.446-4.17-15.909a14.838 14.838 0 00-3.636-3.472c-2.33-1.487-9.267-3.716-11.546-1.227-1.034 1.135-1.692 3.428-2.343 4.812a65.042 65.042 0 00-2.618 6.406z" fill="url(#paint0_linear)"/>
  <path d="M65.995 94.435c-.4.698-.842 1.367-1.221 2.069-.579 1.09-.978 2.377-.595 3.548.053.204.163.389.315.533.204.145.442.232.69.253.808.127 1.623.194 2.44.201 1.117 0 2.322-.133 3.152-.887 1.664-1.519 1.553-5.26.599-7.096a1.27 1.27 0 00-1.158-.802 8.288 8.288 0 00-2.29-.124c-.859.096-1.086.305-1.385 1.127-.151.406-.334.8-.547 1.178z" fill="#4E342E"/>
  <path d="M68.186 94.596c.2.035.403.056.607.06.622.028 1.329.024 1.772-.421.443-.445.45-1.099.45-1.704v-2.35c0-1.551-1.444-1.339-2.578-1.146a1.639 1.639 0 00-.734.276c-.399.317-.443.894-.459 1.4l-.08 2.473c-.035.297.01.597.128.87a1.2 1.2 0 00.894.542z" fill="#FDBAAC"/>
  <path d="M80.598 94.435c.399.698.842 1.367 1.197 2.069.583 1.09.982 2.377.595 3.548a1.126 1.126 0 01-.315.533 1.37 1.37 0 01-.69.253c-.806.127-1.62.194-2.435.201-1.118 0-2.327-.133-3.153-.887-1.668-1.519-1.557-5.26-.603-7.096.08-.174.191-.331.327-.465.24-.186.528-.3.83-.329a8.32 8.32 0 012.295-.124c.854.096 1.082.305 1.381 1.126.158.406.349.798.57 1.171z" fill="#4E342E"/>
  <path d="M78.407 94.596a3.93 3.93 0 01-.607.06c-.626.028-1.329.024-1.772-.421-.443-.445-.455-1.099-.455-1.704v-2.35c0-1.551 1.449-1.339 2.578-1.146.265.03.519.125.739.276.399.317.439.894.455 1.4l.08 2.473c.036.296-.007.597-.124.87a1.2 1.2 0 01-.894.542z" fill="#FDBAAC"/>
  <path d="M77.305 33.726s4.87 2.117 5.44 2.598c.51.43-.874 29.794-.982 31.229-.108 1.435-7.898 1.664-11.266 1.018a36.466 36.466 0 01-6.57-2.004s-1.065-30.33-.399-30.872c.667-.541 7.104-2.542 7.104-2.542l6.673.573z" fill="#64B5F6"/>
  <path d="M61.29 69.942c-.364 1.34-.583 2.847.111 4.042a3.882 3.882 0 001.968 1.58 9.849 9.849 0 002.502.533c5.23.6 10.523.31 15.657-.854a3.724 3.724 0 001.935-.878 3.356 3.356 0 00.75-1.965 11.925 11.925 0 00-1.496-7.349 1.065 1.065 0 00-.399-.441 1.069 1.069 0 00-.527-.088l-13.286.044c-.964.024-1.93-.012-2.89-.108-.746-.089-1.596-.566-2.13.076-1.138 1.339-1.748 3.74-2.196 5.408z" fill="#535353"/>
  <path d="M77.122 91.055l.778.076c2.355.237 3.304-1.78 3.54-4.145.056-.493.172-.99.255-1.48l1.553-9.085.718-4.21c.072-.424.148-.845.216-1.27.207-1.235-.164-2.426-.4-3.665-.14-.75-.319-1.555-.893-2.053-.575-.497-1.37-.54-2.112-.577-1.971-.088-3.97-.18-5.89.28a.502.502 0 00-.308.161.52.52 0 00-.051.333c.14 1.884.438 3.753.399 5.637l-.34 15.14c-.24 2.353.18 4.622 2.535 4.858zM69.758 92.001l-.798.076c-2.35.237-3.304-1.78-3.54-4.145l-2.534-14.835c-.204-1.179-.375-2.313-.463-3.512a8.018 8.018 0 01.08-2.434 2.691 2.691 0 011.413-1.88 3.541 3.541 0 011.197-.233 17.881 17.881 0 014.035.193c.479.04.94.205 1.337.477.393.384.67.872.798 1.407.4 1.155.914 2.43.798 3.665-.095.788-.14 1.583-.136 2.377l.116 5.252.196 8.592a.87.87 0 000 .145c.26 2.337-.16 4.606-2.499 4.855z" fill="#616161"/>
  <path d="M110.714 60.697v.866a1.278 1.278 0 01-.367.895 1.255 1.255 0 01-.89.372h-73.67a1.25 1.25 0 01-.89-.371 1.263 1.263 0 01-.367-.896v-.866c0-.335.133-.656.368-.893.236-.237.556-.37.89-.37h73.669c.333 0 .653.133.889.37.235.237.368.558.368.893z" fill="#424242"/>
  <path d="M87.798 46.01s3.16 6.616 2.821 8.42c-.235 1.271-2.658 2.386-3.615 2.963-.958.578-1.92 1.287-2.914 1.68-.994.393-2.127.24-3.137.209l-5.188-.169c-.248 0-.579-.092-.579-.345 0-.148.128-.264.252-.348.388-.272.838-.44 1.309-.49a13.321 13.321 0 003.296-.633l5.97-4.13-1.44-2.682 3.225-4.474z" fill="#FDBAAC"/>
  <path d="M63.812 35.55c-1.038.454-1.748 1.079-1.995 2.15-.4 1.655-1.218 3.043-1.996 4.546a21.962 21.962 0 00-1.197 2.827 1.78 1.78 0 00-.136.938c.069.241.186.466.343.661a81.153 81.153 0 002.882 3.797 10.98 10.98 0 001.72-.998c.211-.337.127-1.147.16-1.54.058-.802.111-1.613.16-2.433l.059-9.947z" fill="#64B5F6"/>
  <path d="M75.53 30.046c.038.19.063.383.075.577.052.778-.028 1.576.204 2.317.09.268.21.523.359.762.555.882-.132 2.322-.619 3.123-.618 1.015-1.596 2.005-2.837 2.125-1.56.14-2.24-1.603-2.527-2.842-.167-.714-.31-1.227-.044-1.933.268-.705.683-1.379.894-2.125.178-.859.28-1.732.304-2.61.01-.233.072-.462.18-.67a1.199 1.199 0 01.798-.512 3.3 3.3 0 01.953-.028c.492-.002.976.12 1.41.352a2.194 2.194 0 01.85 1.464z" fill="#FDBAAC"/>
  <path d="M71.2 31.365s.634 3.99 2.322 3.271c1.688-.717 2.1-3.007 2.1-3.007l-4.423-.264z" fill="#DEA095"/>
  <path d="M76.216 33.674s-1.493 4.619-3.065 5.236c0 0-.42.277.818.878 1.237.602 4.207-3.235 3.504-5.785a1.96 1.96 0 00-1.305-1.4l.048 1.071zM70.305 33.225s-.228 3.32 1.29 5.457c0 0-.484.89-.955.934-.47.044-1.895-2.682-1.596-4.847.14-1.247.994-1.857 1.261-1.544z" fill="#fff"/>
  <path d="M68.992 22.464s.08 6.17.699 7.778c.618 1.608 2.155 2.899 3.56 2.77 1.404-.128 3.416-1.499 4.166-3.704.75-2.205.75-7.437.451-8.123-.3-.685-1.912-2.786-5.631-2.105-2.558.47-3.329 2.442-3.245 3.384z" fill="#FDBAAC"/>
  <path d="M87.917 42.811c.52.738.886 1.271.974 1.396.135.168.237.362.3.569a1.398 1.398 0 01-.316 1.066c-.555.802-1.373 1.348-2.087 2.005-.804.8-1.525 1.68-2.151 2.626a7.595 7.595 0 01-1.317-1.203 2.686 2.686 0 01-1.038-2.477l-.072-5.172-.04-2.586c0-.445-.57-2.458-.295-2.807.654-.822 4.246 4.066 6.042 6.583z" fill="#64B5F6"/>
  <path d="M68.214 24.75a.237.237 0 00-.14 0 .295.295 0 00-.103.116c-.163.29-.218.627-.156.954.067.269.169.527.303.77.137.393.38.74.703 1.002a.326.326 0 00.223.06.28.28 0 00.152-.08c.207-.246.315-.56.303-.882a1.86 1.86 0 00-.231-1.307 1.44 1.44 0 00-1.054-.633zM78.682 24.65a.329.329 0 01.14 0c.043.029.08.069.104.116.16.291.215.63.155.958a3.717 3.717 0 01-.303.77 2.23 2.23 0 01-.702.998.335.335 0 01-.228.064.316.316 0 01-.147-.08 1.303 1.303 0 01-.304-.882 1.83 1.83 0 01.232-1.307 1.438 1.438 0 011.053-.638z" fill="#FDBAAC"/>
  <path d="M67.939 21.895c-.128-.802-.156-1.728.399-2.317.115-.125.255-.225.375-.345.12-.12.303-.365.459-.55a4.88 4.88 0 013.648-1.575c1.364.027 2.714.289 3.99.773.719.236 1.432.491 2.14.766.275.087.529.23.746.421a1.246 1.246 0 01.235 1.283c-.12.341-.367.63-.466.975-.06.272-.084.55-.072.83a4.873 4.873 0 01-.567 2.12c-.192.417-.512.76-.914.979a9.049 9.049 0 00-.4-2.96 5.49 5.49 0 01-2.956 1.204 8.091 8.091 0 01-3.193-.365 1.411 1.411 0 00-.798-.096c-.26.072-.467.4-.32.617a.454.454 0 00-.63.144 1.36 1.36 0 00-.164.702l-.068 1.531c-.914-1.078-1.221-2.738-1.444-4.137z" fill="#8D6E63"/>
  <path d="M58.48 46.01a52.96 52.96 0 00-1.792 4.187 19.003 19.003 0 00-.95 3.039c-.084.4-.28.95-.132 1.355.228.621 1.166 1.106 1.692 1.427a42.466 42.466 0 005.233 2.738c.7.337 1.44.58 2.203.722a9.675 9.675 0 001.804.052l3.464-.12c.315 0 .726-.108.754-.425 0-.22-.188-.401-.375-.517a7.37 7.37 0 00-1.996-.886c-.69-.189-1.544-.06-2.195-.293-.734-.26-1.552-1.087-2.203-1.54l-3.723-2.582 1.44-2.682-3.224-4.474z" fill="#FDBAAC"/>
  <path d="M82.57 58.023H63.153L61.45 44.88l22.497.313-1.376 12.83z" fill="#CFD8DC"/>
  <path d="M40.784 59.434l-.559 3.396-6.45 39.892a1.15 1.15 0 01-.985 1.015c-.455 0-.75-.457-.658-1.015L38.58 62.83l.547-3.396h1.656z" fill="#473F47"/>
  <path d="M105.051 59.434l.546 3.396 6.466 39.892a1.146 1.146 0 00.985 1.015c.455 0 .751-.457.659-1.015l-6.449-39.892-.547-3.396h-1.66z" fill="#424242"/>
  <path d="M82.57 58.019H63.058v1.431H82.57v-1.431zM37.876 41.047a.73.73 0 10-1.382.474L41.68 56.8a.73.73 0 101.382-.474l-5.186-15.278z" fill="#B0BEC5"/>
  <path d="M36.973 40.568a.734.734 0 00.438 1.4L52.74 37.13a.734.734 0 00-.438-1.4l-15.329 4.838z" fill="#B0BEC5"/>
  <path d="M47.956 59.434h-9.639a5.13 5.13 0 011.867-2.485 5.092 5.092 0 015.905 0 5.13 5.13 0 011.867 2.485zM58.8 37.684c-1.238 1.78-2.703 2.918-3.33 2.61a.55.55 0 01-.08-.053l-.083-.052c-1.828-1.287-3.516-4.69-2.235-6.53 1.281-1.841 5.045-1.42 6.872-.133l.08.06a.538.538 0 01.076.056c.503.485-.06 2.257-1.3 4.041z" fill="#90A4AE"/>
  <path d="M58.799 37.684c-1.237 1.78-2.702 2.918-3.328 2.61l-.056-.032a.052.052 0 01-.024-.02c-.555-.446 0-2.246 1.269-4.062 1.269-1.816 2.758-2.963 3.364-2.594h.028l.048.04c.503.501-.06 2.273-1.301 4.058z" fill="#fff"/>
  <path d="M99.974 46.007h-2.339a.968.968 0 00-.965.97v11.595c0 .536.432.97.965.97h2.34a.968.968 0 00.965-.97V46.977a.968.968 0 00-.966-.97z" fill="#64B5F6"/>
  <path d="M104.119 45.943l-2.333.161a.968.968 0 00-.897 1.035l.793 11.567a.966.966 0 001.03.902l2.333-.162a.968.968 0 00.897-1.034l-.793-11.568a.968.968 0 00-1.03-.901z" fill="#64B5F6"/>
  <path d="M62.32 44.23l-.851.65 22.497.313-.774-.762-20.873-.2z" fill="#90A4AE"/>
  <path d="M103.302 22.6a6.35 6.35 0 01-1.748 3.893 7.055 7.055 0 00-1.871 3.28c-.088.381-.136.774-.204 1.203h-5.587c-.04-.285-.068-.57-.124-.846a6.522 6.522 0 00-1.64-3.207 7.984 7.984 0 01-1.712-2.639 6.76 6.76 0 01.52-5.676 6.72 6.72 0 011.975-2.141 6.683 6.683 0 012.693-1.1 6.633 6.633 0 015.817 1.9 6.69 6.69 0 011.536 2.458c.328.922.45 1.905.357 2.88l-.012-.005z" fill="#fff"/>
  <path d="M102.209 22.6a6.333 6.333 0 01-1.744 3.893 7.057 7.057 0 00-1.876 3.28c-.088.381-.132.774-.203 1.203h-4.49c-.04-.285-.068-.57-.124-.846a6.52 6.52 0 00-1.64-3.207 7.988 7.988 0 01-1.712-2.639 6.76 6.76 0 01.52-5.676 6.72 6.72 0 011.976-2.141 6.683 6.683 0 012.692-1.1c.18-.027.355-.047.527-.064a6.636 6.636 0 014.56 2.374 6.699 6.699 0 011.522 4.928l-.008-.004z" fill="url(#paint1_linear)"/>
  <path d="M99.607 30.964h-5.54a.728.728 0 00-.726.73v.004c0 .403.325.73.726.73h5.54a.728.728 0 00.726-.73v-.004a.728.728 0 00-.726-.73z" fill="#64B5F6"/>
  <path d="M99.184 32.19h-4.949c-.36 0-.65.293-.65.654 0 .361.29.654.65.654h4.949c.36 0 .65-.293.65-.654a.652.652 0 00-.65-.653z" fill="#91C7F2"/>
  <path d="M98.86 33.261h-4.298a.564.564 0 00-.563.566v.004c0 .312.252.565.563.565h4.299c.31 0 .562-.253.562-.566v-.003a.564.564 0 00-.563-.566z" fill="#B2D3ED"/>
  <path d="M95.3 30.944a17.391 17.391 0 00-.398-3.047 22.765 22.765 0 01-.372-2.518c-.087-1.28.164-2.173.77-2.734a.63.63 0 01.4-.197.622.622 0 01.443.18c.02-.023.036-.048.056-.068a.845.845 0 01.399-.28.597.597 0 01.479.064c.103.06.191.142.26.24a.75.75 0 01.57-.1c.363.092.614.437.722.994.26 1.34-.024 2.69-.3 4.01a11.572 11.572 0 00-.37 3.376l-.4.036a11.83 11.83 0 01.38-3.492c.28-1.328.543-2.578.3-3.837-.045-.225-.157-.614-.428-.682a.374.374 0 00-.28.06c.029.07.051.143.069.217.095.393.141.797.14 1.203a.451.451 0 01-.132.344.31.31 0 01-.308.064.607.607 0 01-.351-.437 2.222 2.222 0 01-.068-1.158c.034-.117.088-.227.16-.325a.515.515 0 00-.168-.168.198.198 0 00-.163-.024.439.439 0 00-.204.156c-.032.036-.056.072-.084.108.329.449.472 1.008.4 1.56-.04.276-.204.541-.492.541a.513.513 0 01-.435-.357 2.014 2.014 0 01.028-1.7h-.02c-.095-.092-.155-.112-.18-.108a.315.315 0 00-.143.088c-.507.47-.722 1.283-.642 2.406.076.83.198 1.653.363 2.47.225 1.025.359 2.07.399 3.119l-.4-.004zm.91-7.618c-.128.38-.11.796.053 1.163.019.047.049.09.087.124a.33.33 0 00.08-.192 1.774 1.774 0 00-.223-1.079l.004-.016zm1.026.04c-.028.29.003.584.092.862a4.6 4.6 0 00-.096-.846l.004-.016z" fill="#64B5F6"/>
  <defs>
    <linearGradient id="paint0_linear" x1="73.41" y1="81.305" x2="70.688" y2="22.04" gradientUnits="userSpaceOnUse">
      <stop offset=".01"/>
      <stop offset=".08" stop-opacity=".69"/>
      <stop offset=".21" stop-opacity=".32"/>
      <stop offset="1" stop-opacity="0"/>
    </linearGradient>
    <linearGradient id="paint1_linear" x1="115.499" y1="36.132" x2="85.452" y2="16.536" gradientUnits="userSpaceOnUse">
      <stop offset=".01"/>
      <stop offset=".13" stop-opacity=".69"/>
      <stop offset=".25" stop-opacity=".32"/>
      <stop offset="1" stop-opacity="0"/>
    </linearGradient>
  </defs>
</svg>
