<svg fill="none" xmlns="http://www.w3.org/2000/svg" viewBox="0 0 131 111">
  <g clip-path="url(#clip0)">
    <path opacity=".18" d="M5 83.5c0 7-7 18.5 2 24s22.5 1 52 0 36.5 4 52 2.5 20-12.5 18.5-24.5S119.5 68 117 63s4-9-3.5-20S33.803 19 9 51.5c-15.645 20.5-4 25-4 32z" fill="#64B5F6"/>
    <path d="M5 83.5c0 7-7 18.5 2 24s22.5 1 52 0 36.5 4 52 2.5 20-12.5 18.5-24.5S119.5 68 117 63s4-9-3.5-20S33.803 19 9 51.5c-15.645 20.5-4 25-4 32z" stroke="#64B5F6" stroke-width="2"/>
    <path opacity=".1" d="M121.659 87.544c.191 2.16-.284 4.003-1.083 5.002-.799 1-1.994 1.624-3.23 1.956-1.236.332-5.248 1.34-6.525 1.411 1.241-.386 6.017-1.83 6.64-2.973.26-.525.488-1.066.684-1.618.421-1.06.973-6.025 1.788-6.84.947-.941 1.634 2.014 1.726 3.062z" fill="url(#paint0_linear)"/>
    <path opacity=".1" d="M68.36 93.536a307.608 307.608 0 00-34.285-1.186c-3.248.071-7.058-.075-8.922-2.738 2.081-1.623 4.91-1.79 7.546-1.879 25.901-.925 49.925-1.71 75.827-2.636-1.188-.86 0-2.965-.24-4.414 2.553-.782 7.957.432 9.634 2.208-1.57-1.127-4.92-1.533-6.35-.948-1.43.585-2.59 1.874-1.811 3.206.23.393.6.728.662 1.18.102.755-.687 1.302-1.39 1.593-6.187 2.556-13.71.11-19.688 3.134a2.279 2.279 0 00-.909.703c-.889 1.352 1.195 2.68 2.788 2.948 5.701.966 11.467 1.497 17.248 1.59l-19.584.91c.56.67.276 1.753-.375 2.333-.652.581-1.548.767-2.406.921-7.247 1.239-17.513.746-23.585-4.09 1.846-1.084 3.894-1.92 5.84-2.835z" fill="#000"/>
    <path d="M21.31 28.571l-2.81 3.206c-.49.557-1.02 1.216-.908 1.953a2.3 2.3 0 00.592 1.101 10.192 10.192 0 001.806 1.69c.945-2.577 1.675-5.222 1.32-7.95z" fill="#64B5F6"/>
    <path d="M21.346 28.558l-2.81 3.206c-.49.557-1.02 1.22-.909 1.953.089.413.29.795.58 1.102.532.633 1.14 1.2 1.808 1.687.965-2.574 1.686-5.218 1.33-7.948z" fill="url(#paint1_linear)"/>
    <path d="M108.62 0H24.068v84.857h84.552V0z" fill="#64B5F6"/>
    <path d="M108.62 0H24.068v84.857h84.552V0z" fill="url(#paint2_linear)"/>
    <path d="M25.963 22.863l-15.338 75.67.526.106 15.338-75.67-.526-.106zM34.153 23.045L18.68 98.905l.526.108 15.473-75.861-.526-.107z" fill="#64B5F6"/>
    <path d="M33.343 27.802h-8.198v.537h8.198v-.537zM32.05 34.208h-8.197v.537h8.197v-.537zM30.756 40.611h-8.197v.537h8.197v-.537zM29.461 47.017h-8.197v.537h8.197v-.537zM28.166 53.423H19.97v.537h8.197v-.537zM26.872 59.829h-8.197v.537h8.197v-.537zM25.58 66.235h-8.198v.537h8.197v-.537zM24.285 72.64h-8.197v.538h8.197v-.537zM22.99 79.047h-8.197v.537h8.197v-.537zM21.695 85.453h-8.197v.537h8.197v-.537zM20.4 91.856h-8.196v.537H20.4v-.537z" fill="#64B5F6"/>
    <path opacity=".1" d="M35.45 84.786l-.67-60.875-.56-.107.052 4.634h-1.494c-.023-.797-.133-1.57-.414-2.09-.789-1.47-1.787 0-2.073.983-.128.43-.327.882-.713 1.1h-1.506a2.574 2.574 0 00-.536-.052 1.761 1.761 0 00-.33.05h-.766l-.059-4.717-.559-.105.072 5.844a2.322 2.322 0 00-.11.191c-.342.673-.43 1.44-.51 2.191-.716 7.523-.338 15.1.043 22.646.066 1.306.135 2.635.582 3.865.095.265.214.522.355.767l.321 25.695 8.874-.02zm-.56-.126l-7.745-.017-.07-5.724 7.751.018.064 5.723zm-.069-6.247l-7.758-.018-.071-5.723 7.76.02.069 5.72zm-.069-6.245l-7.76-.028-.072-5.724 7.768.02.064 5.732zm-.069-6.247l-7.77-.02-.072-5.724h.51c.072.038.145.072.22.102a1.733 1.733 0 001.354-.097h5.7l.058 5.739zm-.069-6.248h-5.127c.072-.122.119-.258.137-.399.072-.534-.224-1.035-.426-1.533-.483-1.197-.434-2.516-.148-3.791l5.503.012.061 5.711zm-.069-6.247h-5.362c.092-.335.199-.665.314-.987.572-1.58 1.348-3.098 1.726-4.73h3.26l.062 5.717zm-.076-6.248h-3.144c.322-1.879.07-3.834.19-5.723h2.892l.062 5.723zm-.07-6.247H31.56c.046-.457.126-.91.238-1.355.168-.644.418-1.278.523-1.93a9.98 9.98 0 00-.046-2.436h2.063l.062 5.72zm-.13-11.969l.064 5.724h-2.099a8.144 8.144 0 01-.02-.828c.035-.987.309-1.95.424-2.932.08-.651.126-1.306.138-1.961l1.493-.003z" fill="url(#paint3_linear)"/>
    <g opacity=".74" fill="#64B5F6">
      <path opacity=".74" d="M49.951 3.528H33.414v1.728H49.95V3.528zM43.508 6.874H33.414V8.5h10.094V6.874z"/>
      <path opacity=".54" d="M79.343 6.874H47.58V8.51h31.764V6.874z"/>
      <path opacity=".74" d="M100.196 6.874h-17.88V8.51h17.88V6.874zM52.543 10.22H38.664v1.715h13.879V10.22z"/>
      <path opacity=".48" d="M47.673 23.08h-9.009v1.93h9.01v-1.93z"/>
      <path opacity=".74" d="M67.346 28.98h-3.805v1.922h3.805V28.98zM47.673 25.959h-9.009v1.93h9.01v-1.93zM47.673 60.793h-9.009v1.93h9.01v-1.93zM52.8 44.852h-9.008v1.93H52.8v-1.93z"/>
      <path opacity=".48" d="M52.8 48.02h-9.008v1.93H52.8v-1.93z"/>
      <path opacity=".74" d="M52.8 54.065h-9.008v1.93H52.8v-1.93zM52.8 57.232h-9.008v1.93H52.8v-1.93zM64.019 48.02h-9.01v1.93h9.01v-1.93z"/>
      <path opacity=".48" d="M64.019 57.135h-9.01v1.93h9.01v-1.93z"/>
      <path opacity=".74" d="M79.846 60.793H50.6v1.93h29.246v-1.93zM59.657 13.566H43.12v1.728h16.537v-1.728z"/>
      <path opacity=".52" d="M74.599 13.566H60.736v1.92h13.861v-1.92z"/>
      <path opacity=".74" d="M55.868 16.915h-12.77v1.626h12.77v-1.626z"/>
      <path opacity=".48" d="M61.77 29.198H43.096v1.515H61.77v-1.515z"/>
      <path opacity=".74" d="M105.525 16.915h-12.77v1.626h12.77v-1.626zM83.447 16.915H57.093v1.802h26.354v-1.802zM91.759 16.915h-5.81v1.832h5.81v-1.832z"/>
      <path opacity=".48" d="M71.843 20.26H43.05v1.614h28.794V20.26z"/>
      <path opacity=".74" d="M62.04 64.164H43.049v1.685h18.99v-1.685zM64.69 32.855H48.154v1.729h16.538v-1.729z"/>
      <path opacity=".48" d="M64.69 41.588H48.154v1.728h16.538v-1.728z"/>
      <path opacity=".74" d="M58.197 76.424H48.153v1.672h10.044v-1.672zM50.429 79.663h-6.803v1.544h6.803v-1.544zM58.35 66.923H48.153v1.728H58.35v-1.728zM70.645 66.923H60.45v1.728h10.197v-1.728zM63.026 70.09H52.829v1.728h10.197V70.09zM75.319 70.09H65.122v1.728H75.32V70.09zM66.818 73.329H52.829v1.728h13.989v-1.728zM72.742 73.329h-3.736v1.728h3.736v-1.728zM56.424 51.09h-8.27v1.65h8.27v-1.65zM64.693 38.517H53.181v1.54h11.512v-1.54zM79.264 38.517H67.752v1.54h11.512v-1.54zM79.264 47.827H67.752v1.54h11.512v-1.54zM93.069 38.517H81.557v1.54h11.512v-1.54zM93.069 73.4H74.1v1.539h18.968V73.4z"/>
      <path opacity=".48" d="M84.249 32.855H67.71v1.729H84.25v-1.729z"/>
      <path opacity=".74" d="M70.06 35.447H53.525v1.728H70.06v-1.727z"/>
      <path opacity=".48" d="M89.616 35.447H73.08v1.728h16.537v-1.727z"/>
      <path opacity=".74" d="M102.869 32.855H86.332v1.729h16.537v-1.729z"/>
    </g>
    <path d="M30.911 22.293a1.31 1.31 0 01-.064-.465.68.68 0 000-.205.764.764 0 00-.166-.255.827.827 0 01-.117-.767c.176-.036.238-.174.299-.34.043-.173.115-.337.212-.486a.133.133 0 01.094-.059.12.12 0 01.097.07c.074.148-.023.35.077.48.059.072.16.095.232.15.154.116.161.351.297.481a.546.546 0 01.086.085c.029.051.04.11.031.168a1.222 1.222 0 01-.227.632c-.13.13-.223.29-.271.468a.583.583 0 01-.02.163.22.22 0 01-.256.11c-.094-.023-.224-.181-.304-.23z" fill="#FDBAAC"/>
    <path d="M25.93 28.469a1.157 1.157 0 00-.256-.256.86.86 0 00-.539-.133 4.21 4.21 0 00-.557.092c-.801.149-1.624-.038-2.438 0-.914.054-1.257 1.023-1.418 1.412a8.186 8.186 0 00-.597 2.349c-.038.383-.049.767-.059 1.155-.046 1.567-.15 3.119-.09 4.686l.103 2.571a.696.696 0 00.115.437.664.664 0 00.345.182c1.442.417 2.964.427 4.466.427.766 0 1.64-.046 2.145-.624.557-.639.411-1.603.294-2.441-.432-3.216.441-7.27-1.515-9.857z" fill="#64B5F6"/>
    <path d="M25.93 28.469a1.157 1.157 0 00-.256-.256.86.86 0 00-.539-.133 4.21 4.21 0 00-.557.092c-.801.149-1.624-.038-2.438 0-.914.054-1.257 1.023-1.418 1.412a8.186 8.186 0 00-.597 2.349c-.038.383-.049.767-.059 1.155-.046 1.567-.15 3.119-.09 4.686l.103 2.571a.696.696 0 00.115.437.664.664 0 00.345.182c1.442.417 2.964.427 4.466.427.766 0 1.64-.046 2.145-.624.557-.639.411-1.603.294-2.441-.432-3.216.441-7.27-1.515-9.857z" fill="#000" fill-opacity=".1"/>
    <path d="M24.923 27.293c.188-.134.344-.309.455-.511a1.3 1.3 0 00.074-.611 2.213 2.213 0 00-.256-.938 1.182 1.182 0 00-.75-.586c-.511-.104-1.037.256-1.277.711a3.398 3.398 0 00-.304 1.534c-.018.662-.526 1.674.095 1.907.717.268 1.276-.512 1.396-.854a1.49 1.49 0 01.567-.652z" fill="#FDBAAC"/>
    <path d="M25.153 23.904c-.003.226-.07.448-.191.639a3.324 3.324 0 01-.384.588 1.374 1.374 0 00-.255.347 1.04 1.04 0 00.056.667c-.11.057-.214-.194-.316-.125a.127.127 0 00-.039.064.459.459 0 00.11.457.308.308 0 01.082.1c.03.08-.036.161-.067.24-.076.195.06.433-.043.614a.511.511 0 01-.444.194c-.3.02-.598.028-.897.02a.341.341 0 01-.176-.035.367.367 0 01-.135-.256 9.506 9.506 0 01-.256-2.247 1.074 1.074 0 01.149-.639c.089-.12.22-.2.314-.309.094-.11.186-.32.311-.457.188-.172.418-.288.667-.338.493-.13 1.458-.317 1.514.476z" fill="#795548"/>
    <path d="M20.033 47.199c.046.386.056.777.028 1.165a5.675 5.675 0 01-.21.918 26.376 26.376 0 01-1.215 3.56c-.352.768-.784 1.535-1.065 2.332a13.66 13.66 0 00-.559 2.907c.247-.066.467-.208.628-.407a31.924 31.924 0 005.651-7.773 8.09 8.09 0 00.767-1.92 9.301 9.301 0 00.16-1.726c.066-1.248.047-2.499-.056-3.745-.046-.434-.148-.922-.51-1.152a1.371 1.371 0 00-.598-.161c-.697-.064-1.41 0-2.097-.154-.255-.051-.65-.296-.84-.133-.189.164-.084.967-.094 1.186-.102 1.7-.098 3.404.01 5.103z" fill="#3F3D56"/>
    <path d="M20.033 47.199c.046.386.056.777.028 1.165a5.675 5.675 0 01-.21.918 26.376 26.376 0 01-1.215 3.56c-.352.768-.784 1.535-1.065 2.332a13.66 13.66 0 00-.559 2.907c.247-.066.467-.208.628-.407a31.924 31.924 0 005.651-7.773 8.09 8.09 0 00.767-1.92 9.301 9.301 0 00.16-1.726c.066-1.248.047-2.499-.056-3.745-.046-.434-.148-.922-.51-1.152a1.371 1.371 0 00-.598-.161c-.697-.064-1.41 0-2.097-.154-.255-.051-.65-.296-.84-.133-.189.164-.084.967-.094 1.186-.102 1.7-.098 3.404.01 5.103z" fill="url(#paint4_linear)"/>
    <path d="M25.334 50.808c.06.98.006 1.963-.163 2.93l-.662 4.964a.51.51 0 00.728.171c.23-.167.407-.396.511-.66 1.004-1.973 2.02-3.985 2.393-6.165.157-1.025.22-2.062.191-3.098a38.25 38.25 0 00-.888-7.74.511.511 0 00-.156-.32.53.53 0 00-.373-.046l-2.275.286c-.544.07-3.197-.013-3.197-.013s.921 2.27 1.184 2.973c.8 2.137 2.707 4.356 2.707 6.718z" fill="#3F3D56"/>
    <path d="M16.496 58.467a.7.7 0 00.187.255 3.38 3.38 0 001.864.93.554.554 0 00.534-.127.41.41 0 00-.064-.511 1.404 1.404 0 00-.457-.294 1.335 1.335 0 01-.746-.731c-.365-1.217-1.632-.522-1.318.478z" fill="url(#paint5_linear)"/>
    <path d="M24.267 59.79c.128.207.321.364.549.448.552.256 1.172.476 1.77.337a.745.745 0 00.447-.255.368.368 0 00-.016-.478c-.138-.125-.355-.087-.541-.108a.764.764 0 01-.539-.327c-.069-.102-.112-.22-.176-.324-.55-.926-1.966-.266-1.494.708z" fill="url(#paint6_linear)"/>
    <path d="M16.453 57.643a.446.446 0 01.406-.143c.214.051.327.304.531.391.092.039.194.041.289.075.176.084.333.206.46.355.362.332.885.511 1.125.933a.302.302 0 01.034.291.287.287 0 01-.2.115c-.273.054-.633.151-.89.044a9.544 9.544 0 01-1.293-.624c-.227-.138-.39-.511-.554-.734-.2-.265-.135-.467.092-.703zM24.303 59.006c-.07-.028-.154-.064-.207-.013a.118.118 0 00-.028.041.825.825 0 00.232.928c.264.22.563.393.886.511.322.168.666.289 1.022.358a.99.99 0 00.957-.358.512.512 0 00.09-.365c-.054-.282-.373-.404-.639-.512-.337-.132-.63-.375-.978-.483-.444-.145-.92.064-1.335-.107z" fill="#3F3D56"/>
    <path d="M25.909 28.305l2.007-1c.253-.113.492-.255.712-.424 1.193-.97 1.127-2.765 1.745-4.174a.434.434 0 01.176-.23.454.454 0 01.227-.015l.81.097-.646 4.757c-.036.349-.111.692-.225 1.023-.1.233-.223.456-.368.664a11.24 11.24 0 01-2.908 2.978c-.12.097-.26.167-.409.205a.783.783 0 01-.51-.095c-.555-.289-.785-.958-.892-1.575a3.305 3.305 0 01.281-2.21z" fill="#64B5F6"/>
    <path d="M25.909 28.305l2.007-1c.253-.113.492-.255.712-.424 1.193-.97 1.127-2.765 1.745-4.174a.434.434 0 01.176-.23.454.454 0 01.227-.015l.81.097-.646 4.757c-.036.349-.111.692-.225 1.023-.1.233-.223.456-.368.664a11.24 11.24 0 01-2.908 2.978c-.12.097-.26.167-.409.205a.783.783 0 01-.51-.095c-.555-.289-.785-.958-.892-1.575a3.305 3.305 0 01.281-2.21z" fill="#000" fill-opacity=".2"/>
    <path d="M108.62 84.857H24.068v4.75h84.552v-4.75z" fill="#64B5F6"/>
    <path d="M108.62 85.721H24.068v3.886h84.552V85.72z" fill="#fff" fill-opacity=".5"/>
    <path d="M120.878 87.843c-.373 1.738-1.392 3.604-3.277 5.19-3.457 2.908-7.929 3.662-11.072 3.785-.388.015-.766.023-1.16.023-2.808 0-5.618-.37-8.335-.731l-1.925-.256c-3.256-.406-7.007-.741-10.316.427l-.292-.828-.303-.859c3.674-1.299 7.673-.946 11.13-.511.647.079 1.293.166 1.941.255 3.019.4 6.142.813 9.193.696 2.863-.113 6.923-.788 9.993-3.37 1.223-1.022 2.298-2.525 2.678-4.115a4.622 4.622 0 00-.063-2.536 4.263 4.263 0 00-.458-.971c-.868-1.373-2.428-2.255-3.764-2.648-1.984-.586-4.149-.512-6.248-.438h-.077l-.028-.787-.036-1c2.156-.079 4.597-.168 6.895.512 2.674.787 4.699 2.576 5.414 4.783a6.587 6.587 0 01.11 3.379z" fill="#64B5F6"/>
    <path d="M120.913 86.872c-.153 2.001-1.167 4.302-3.419 6.198-3.458 2.907-7.932 3.664-11.075 3.784-.386.015-.766.023-1.159.023-2.809 0-5.618-.37-8.333-.731L95 95.89c-3.256-.406-7.007-.741-10.314.427l-.595-1.687c.148-.051.296-.102.447-.148l.291.828c3.32-1.169 7.06-.834 10.317-.427l1.925.255c2.72.36 5.521.732 8.335.732.386 0 .766 0 1.159-.023 3.144-.123 7.615-.877 11.073-3.786 1.885-1.585 2.903-3.451 3.276-5.19z" fill="url(#paint7_linear)"/>
    <path d="M77.418 86.2l12.078 2.76-2.3 10.58-7.993 3.837-10.953-4.772 7.347-3.288 1.82-9.118z" fill="#64B5F6"/>
    <path d="M77.418 86.2l12.078 2.76-2.3 10.58-7.993 3.837-10.953-4.772 7.347-3.288 1.82-9.118z" fill="#000" fill-opacity=".2"/>
    <path d="M76.626 85.984l12.079 2.759-2.301 10.58-7.837 3.817-10.953-4.775 7.191-3.265 1.821-9.115z" fill="#64B5F6"/>
    <path d="M76.338 95.149l9.348 2.952 1.941-8.566-9.706-2.086-1.584 7.7z" fill="#64B5F6"/>
    <path d="M76.338 95.149l9.348 2.952 1.941-8.566-9.706-2.086-1.584 7.7z" fill="#fff" fill-opacity=".8"/>
    <path d="M118.881 84.09l-.271-.05c-.868-1.374-2.428-2.255-3.764-2.649-1.984-.585-4.219-.511-6.318-.435l-.023-.859s4.597-.255 7.319 1.054c1.726.833 3.057 2.94 3.057 2.94z" fill="#000" fill-opacity=".4"/>
  </g>
  <defs>
    <linearGradient id="paint0_linear" x1="110.814" y1="90.1" x2="121.702" y2="90.1" gradientUnits="userSpaceOnUse">
      <stop stop-opacity="0"/>
      <stop offset=".99"/>
    </linearGradient>
    <linearGradient id="paint1_linear" x1="291.657" y1="1234.73" x2="634.305" y2="1185.29" gradientUnits="userSpaceOnUse">
      <stop stop-opacity="0"/>
      <stop offset=".99"/>
    </linearGradient>
    <linearGradient id="paint2_linear" x1="153.349" y1="-53.198" x2="12.267" y2="101.545" gradientUnits="userSpaceOnUse">
      <stop stop-color="#fff" stop-opacity="0"/>
      <stop offset=".99" stop-color="#fff"/>
    </linearGradient>
    <linearGradient id="paint3_linear" x1="67.832" y1="-1871760" x2="63435.4" y2="1014730" gradientUnits="userSpaceOnUse">
      <stop stop-opacity="0"/>
      <stop offset=".99"/>
    </linearGradient>
    <linearGradient id="paint4_linear" x1="656.126" y1="3679.98" x2="736.216" y2="3671.56" gradientUnits="userSpaceOnUse">
      <stop stop-opacity="0"/>
      <stop offset=".99"/>
    </linearGradient>
    <linearGradient id="paint5_linear" x1="198.211" y1="639.912" x2="226.622" y2="639.912" gradientUnits="userSpaceOnUse">
      <stop stop-color="#ECC4D7"/>
      <stop offset=".42" stop-color="#EFD4D1"/>
      <stop offset="1" stop-color="#F2EAC9"/>
    </linearGradient>
    <linearGradient id="paint6_linear" x1="311.456" y1="561.591" x2="345.337" y2="561.591" gradientUnits="userSpaceOnUse">
      <stop stop-color="#ECC4D7"/>
      <stop offset=".42" stop-color="#EFD4D1"/>
      <stop offset="1" stop-color="#F2EAC9"/>
    </linearGradient>
    <linearGradient id="paint7_linear" x1="17600.4" y1="3226.69" x2="15393" y2="10956.3" gradientUnits="userSpaceOnUse">
      <stop stop-opacity="0"/>
      <stop offset=".99"/>
    </linearGradient>
    <clipPath id="clip0">
      <path fill="#fff" d="M0 0h131v111H0z"/>
    </clipPath>
  </defs>
</svg>
